# xmcd
#
# Track frame offsets:
#	150
#	29443
#	46752
#	65946
#	87378
#	109607
#	139531
#	155975
#	177262
#	201199
#
# Disc length: 2938 seconds
#
# Revision: 1
# Processed by: cddbd v1.5.2PL0 Copyright (c) Steve Scherf et al.
# Submitted via: EZCDAudioConverter 8.0.3.1
#
DISCID=8d0b780a
DTITLE=Layla Zoe - Gemini (Courage)
DYEAR=2018
DGENRE=Electric Blues
TTITLE0=Weakness
TTITLE1=Dark World
TTITLE2=Ghost Train
TTITLE3=Bitch With The Head Of Red
TTITLE4=Gemini
TTITLE5=Roses And Lavender
TTITLE6=White Dog
TTITLE7=Automatic Gun
TTITLE8=Are You Still Alive Inside
TTITLE9=Littel Sister
EXTD=
EXTT0=
EXTT1=
EXTT2=
EXTT3=
EXTT4=
EXTT5=
EXTT6=
EXTT7=
EXTT8=
EXTT9=
PLAYORDER=
